<?xml version="1.0" standalone="no"?>
<!DOCTYPE svg PUBLIC "-//W3C//DTD SVG 20010904//EN"
 "http://www.w3.org/TR/2001/REC-SVG-20010904/DTD/svg10.dtd">
<svg version="1.0" xmlns="http://www.w3.org/2000/svg"
 width="512.000000pt" height="512.000000pt" viewBox="0 0 512.000000 512.000000"
 preserveAspectRatio="xMidYMid meet">
<metadata>
Created by potrace 1.14, written by Peter Selinger 2001-2017
</metadata>
<g transform="translate(0.000000,512.000000) scale(0.100000,-0.100000)"
fill="#000000" stroke="none">
<path d="M1199 5116 c-2 -2 -28 -7 -58 -11 -29 -4 -71 -13 -92 -20 -22 -8 -41
-14 -44 -14 -53 -3 -246 -98 -340 -168 -148 -111 -270 -259 -347 -423 -33 -69
-74 -192 -84 -247 -2 -13 -7 -35 -11 -50 -10 -43 -12 -750 -2 -818 10 -72 13
-83 33 -161 74 -283 293 -551 563 -688 82 -42 218 -90 284 -101 24 -4 53 -10
64 -13 11 -3 229 -6 485 -8 256 -2 472 -3 480 -3 13 -1 15 -57 15 -441 0 -242
-3 -439 -6 -438 -4 2 -52 46 -106 98 -133 129 -200 160 -331 157 -101 -3 -188
-43 -259 -120 -101 -111 -117 -281 -42 -430 20 -38 176 -272 361 -540 38 -56
151 -223 250 -372 99 -148 188 -278 199 -287 19 -16 103 -17 1230 -17 l1209 0
27 24 28 23 -1 594 c-1 788 -6 1151 -16 1217 -47 295 -411 419 -627 213 l-43
-41 -42 40 c-100 98 -246 129 -381 83 -58 -19 -125 -63 -154 -100 l-21 -27
-42 42 c-34 33 -110 81 -138 87 -3 0 -18 4 -34 9 -74 21 -195 4 -264 -36 -18
-10 -36 -19 -40 -19 -4 0 -7 63 -7 140 l0 140 495 1 c272 0 509 3 525 5 17 2
65 11 109 20 386 75 721 379 835 759 43 143 49 213 50 570 1 372 -7 455 -54
605 -123 386 -461 683 -860 754 -67 12 -307 14 -1436 15 -746 0 -1358 -1
-1360 -3z"/>
</g>
</svg>
